<svg width="22" height="23" viewBox="0 0 22 23" fill="none" xmlns="http://www.w3.org/2000/svg">
<g style="mix-blend-mode:plus-darker" filter="url(#filter0_di_498_115)">
<path d="M15.9947 10.0034C15.0737 10.0034 14.2341 9.78025 13.4761 9.33392C12.7251 8.8805 12.1229 8.27476 11.6695 7.5167C11.2232 6.75864 11 5.91911 11 4.9981C11 4.0771 11.2232 3.24111 11.6695 2.49013C12.1229 1.73208 12.7251 1.12988 13.4761 0.683545C14.2341 0.230127 15.0737 0.00341797 15.9947 0.00341797C16.9157 0.00341797 17.7552 0.230127 18.5133 0.683545C19.2713 1.12988 19.8735 1.73208 20.3199 2.49013C20.7733 3.24111 21 4.0771 21 4.9981C21 5.91911 20.7733 6.75864 20.3199 7.5167C19.8735 8.27476 19.2713 8.8805 18.5133 9.33392C17.7552 9.78025 16.9157 10.0034 15.9947 10.0034ZM15.9947 7.58046C16.4764 7.58046 16.9121 7.46357 17.3018 7.22977C17.6915 6.99598 17.9996 6.68425 18.2264 6.2946C18.4601 5.90494 18.577 5.47278 18.577 4.9981C18.577 4.52343 18.4601 4.09127 18.2264 3.70161C17.9996 3.31196 17.6915 3.00377 17.3018 2.77706C16.9121 2.54327 16.4764 2.42637 15.9947 2.42637C15.52 2.42637 15.0878 2.54327 14.6982 2.77706C14.3085 3.00377 13.9968 3.31196 13.763 3.70161C13.5363 4.09127 13.423 4.52343 13.423 4.9981C13.423 5.47278 13.5363 5.90494 13.763 6.2946C13.9968 6.68425 14.3085 6.99598 14.6982 7.22977C15.0878 7.46357 15.52 7.58046 15.9947 7.58046Z" fill="#D9D9D9"/>
</g>
<g style="mix-blend-mode:plus-darker" filter="url(#filter1_di_498_115)">
<path d="M7.74164 5.82861V8.3233H0V5.82861H7.74164ZM2.07612 2.00342H4.83506V17.1067C4.83506 17.7096 4.91503 18.1635 5.07497 18.4684C5.23491 18.7663 5.44098 18.9708 5.6932 19.0816C5.95156 19.1856 6.23145 19.2376 6.53287 19.2376C6.75433 19.2376 6.9481 19.2202 7.11419 19.1856C7.28028 19.1509 7.40946 19.1232 7.50173 19.1024L8 21.6699C7.84006 21.7392 7.61246 21.8085 7.31719 21.8778C7.02192 21.954 6.65283 21.9956 6.20992 22.0025C5.48404 22.0164 4.80738 21.8709 4.17993 21.5659C3.55248 21.261 3.04498 20.7898 2.65744 20.1523C2.2699 19.5148 2.07612 18.7144 2.07612 17.7511V2.00342Z" fill="#D9D9D9"/>
</g>
<defs>
<filter id="filter0_di_498_115" x="11" y="0.00341797" width="10.1" height="10.1" filterUnits="userSpaceOnUse" color-interpolation-filters="sRGB">
<feFlood flood-opacity="0" result="BackgroundImageFix"/>
<feColorMatrix in="SourceAlpha" type="matrix" values="0 0 0 0 0 0 0 0 0 0 0 0 0 0 0 0 0 0 127 0" result="hardAlpha"/>
<feOffset dx="0.1" dy="0.1"/>
<feComposite in2="hardAlpha" operator="out"/>
<feColorMatrix type="matrix" values="0 0 0 0 0.962174 0 0 0 0 0.962174 0 0 0 0 0.962174 0 0 0 1 0"/>
<feBlend mode="normal" in2="BackgroundImageFix" result="effect1_dropShadow_498_115"/>
<feBlend mode="normal" in="SourceGraphic" in2="effect1_dropShadow_498_115" result="shape"/>
<feColorMatrix in="SourceAlpha" type="matrix" values="0 0 0 0 0 0 0 0 0 0 0 0 0 0 0 0 0 0 127 0" result="hardAlpha"/>
<feOffset dx="0.1" dy="0.1"/>
<feComposite in2="hardAlpha" operator="arithmetic" k2="-1" k3="1"/>
<feColorMatrix type="matrix" values="0 0 0 0 0 0 0 0 0 0 0 0 0 0 0 0 0 0 0.2 0"/>
<feBlend mode="normal" in2="shape" result="effect2_innerShadow_498_115"/>
</filter>
<filter id="filter1_di_498_115" x="0" y="2.00342" width="8.1" height="20.1" filterUnits="userSpaceOnUse" color-interpolation-filters="sRGB">
<feFlood flood-opacity="0" result="BackgroundImageFix"/>
<feColorMatrix in="SourceAlpha" type="matrix" values="0 0 0 0 0 0 0 0 0 0 0 0 0 0 0 0 0 0 127 0" result="hardAlpha"/>
<feOffset dx="0.1" dy="0.1"/>
<feComposite in2="hardAlpha" operator="out"/>
<feColorMatrix type="matrix" values="0 0 0 0 0.960784 0 0 0 0 0.960784 0 0 0 0 0.960784 0 0 0 1 0"/>
<feBlend mode="normal" in2="BackgroundImageFix" result="effect1_dropShadow_498_115"/>
<feBlend mode="normal" in="SourceGraphic" in2="effect1_dropShadow_498_115" result="shape"/>
<feColorMatrix in="SourceAlpha" type="matrix" values="0 0 0 0 0 0 0 0 0 0 0 0 0 0 0 0 0 0 127 0" result="hardAlpha"/>
<feOffset dx="0.1" dy="0.1"/>
<feComposite in2="hardAlpha" operator="arithmetic" k2="-1" k3="1"/>
<feColorMatrix type="matrix" values="0 0 0 0 0 0 0 0 0 0 0 0 0 0 0 0 0 0 0.2 0"/>
<feBlend mode="normal" in2="shape" result="effect2_innerShadow_498_115"/>
</filter>
</defs>
</svg>
